<?xml version="1.0" standalone="yes"?>
<svg width="645" height="702" xmlns="http://www.w3.org/2000/svg">
<path style="fill:#ffffff; stroke:none;" d="M0 0L0 702L645 702L645 0L0 0z"/>
<path style="fill:#ffeeef; stroke:none;" d="M372 60L372 113L368 113L368 116L374 116L374 117L118 117L118 356L114 356L114 452L64 452L64 641L252 641L252 592L368 592L368 588L530 588L530 356L534 356L534 281L594 281L594 60L372 60z"/>
<path style="fill:#95b9f4; stroke:none;" d="M368 116L368 117L374 117L368 116z"/>
<path style="fill:#78a2e9; stroke:none;" d="M119 118C124.207 130.297 137.964 140.079 146.715 150C171.983 178.648 199.449 205.355 224.715 234C233.139 243.551 242.293 252.452 250.715 262C254.906 266.752 259.851 274.13 266 276.397C270.89 278.2 277.847 277 283 277L318 277L437 277L437 280L313 280C322.069 292.874 335.517 310.802 353 307L353 319C350.298 316.012 349.039 311.285 344.958 309.758C340.846 308.219 336.112 311.251 337.786 315.899C340.382 323.103 364.382 326.77 350.811 338.348C349.366 339.581 347.708 340.242 346 341L346 343C361.917 354.449 374.661 373.215 386 389L387 389C387 378.971 388.554 372.036 381 365L395 365C380.649 379.693 400.668 395.489 411.003 406C414.671 409.73 418.312 415.562 423.015 417.972C426.942 419.985 432.709 419 437 419L434 422L492.741 485.09L529 524L529 390L529 350C529 344.567 530.294 337.152 528.397 332C523.551 318.843 505.487 306.433 496.285 296C467.419 263.272 436.833 231.933 407.09 200C389.431 181.042 371.552 162.211 354.17 143C347.809 135.971 339.037 121.936 330 118.603C324.334 116.514 315.985 118 310 118L267 118L119 118z"/>
<path style="fill:#8fb6f3; stroke:none;" d="M331 118L374.91 166L452.91 250L504.91 306L529 331L529 296C529 291.124 530.103 284.632 528.397 280C526.095 273.751 518.598 267.673 514.003 263C505.076 253.922 496.931 244.08 488.003 235C460.896 207.432 435.992 177.7 409.015 150C400.038 140.783 390.609 124.832 379 119.028C374.799 116.927 368.568 118 364 118L331 118z"/>
<path style="fill:#a0c0f7; stroke:none;" d="M379 118L412.961 155L465.91 212L505.83 255L529 279L529 118L379 118z"/>
<path style="fill:#a4abe9; stroke:none;" d="M119 120L119 171C119 177.25 117.181 186.895 119.603 192.715C122.769 200.321 132.332 206.897 137.715 213C153.638 231.054 170.327 248.598 186.961 266C201.499 281.21 215.615 307 238 307C233.297 312.562 233 315.708 233 323C238.4 320.197 242.57 316.014 244 310L241 307L254 307L254 310C234.099 312.235 240.896 340.217 256.942 338.797C263.923 338.179 263.555 311.261 256 310L256 307L269 307C264.479 299.178 252.653 283.794 244 280.603C235.504 277.471 222.034 280 213 280L213 277L265 277C258.321 267.519 248.954 259.602 241.17 251C224.382 232.447 207.143 214.309 190.09 196C167.084 171.302 145.259 141.173 119 120z"/>
<path style="fill:#ceb6e9; stroke:none;" d="M119 194L119 251L119.603 274.7L140.545 297.039L203.871 365.17L241.946 406.285L254 418.397L277 419L329 419C320.881 407.463 313.403 399 299 399L299 396C312.513 394.947 300.075 367.864 291.015 367.207C283.173 366.638 283.029 394.67 291 396L291 399L276 399L276 396C282.79 394.867 281 387.461 281 382L265 382C265 389.47 264.865 393.38 270 399L256 399L256 396L260 396C260 386.04 262.742 372.883 256 365L270 365C265.662 369.744 266 373.776 266 380L281 380C281 373.165 280.643 370.082 276 365L296 365L274 339C283.496 336.245 280 319.928 280 312L279 312L279 316C275.158 312.214 272.565 309.716 267 310C267 317.038 263.332 337.553 272 339L272 341L247.184 339.972L233 325C233 332.065 232.944 335.824 238 341L223 341L228 338C228 329.978 231.606 312.652 223 309L225 306C200.644 281.576 177.315 255.579 154.17 230C144.385 219.186 132.207 200.21 119 194z"/>
<path style="fill:#e9bee9; stroke:none;" d="M119 276L119 340L119.858 368L133.576 384L170.83 424L274.83 536L308.015 572L322.004 585.972L345 587L401 587C388.746 569.588 371.593 554.571 357.09 539C335.702 516.039 314.723 492.685 293.039 470C283.632 460.158 274.306 450.097 265.17 440C260.315 434.635 255.077 426.635 248.715 423.028C240.644 418.453 222.229 422 213 422L213 419L253 419L223.129 385.985L159.054 316.961L133.054 288.961L119 276z"/>
<path style="fill:#ffffff; stroke:none;" d="M213 277L213 280L437 280L437 277L213 277z"/>
<path style="fill:#92a7e9; stroke:none;" d="M245 280C253.605 292.218 266.8 307.312 279 316L274 307C289.099 307 290.621 318.055 295 331L296 331L304 307L316 307L316 310C305.694 311.72 310.876 335.754 316 341L301 341L301 339C309.447 337.59 306 319.755 306 313L305 313L295 340L293 340L283 312L282 312C282 322.841 279.994 332.837 288 341L274 341C281.72 351.96 292.015 364.998 306 365L306 367L302 367L308 380L310 380L316 368L312 365L338 365C332.714 370.781 329.489 395.275 341.004 395.926C356.511 396.803 350.19 371.189 344 365L358 365C348.324 374.906 356.495 388.38 346 399L346 400L364.004 417.972L382 419L423 419L391 383L390 383L390 399L368 374C368 380.87 364.759 395.263 374 396L374 399L359 399L359 396C371.631 393.986 364.142 370.9 359 365L367 365C360.239 353.303 346.916 338.213 332 341L332 329C334.733 332.023 335.964 336.633 340.043 338.257C344.203 339.913 350.997 337.554 349.338 332.042C346.642 323.089 321.209 320.513 338 308C333.827 299.956 320.689 283.807 312 280.603C306.076 278.419 297.262 280 291 280L245 280z"/>
<path style="fill:#b7cdf4; stroke:none;" d="M371 306L371 307L377 307L371 306z"/>
<path style="fill:#afc8f3; stroke:none;" d="M407 306L407 307L413 307L407 306z"/>
<path style="fill:#cdd2f4; stroke:none;" d="M223 309L238 309C235.185 305.779 225.815 305.779 223 309z"/>
<path style="fill:#e8f2ff; stroke:none;" d="M241 307L244 310L233 323L237 308L224 308C229.707 317.048 228 327.416 228 338L223 341L238 341C234.111 335.113 233 332.289 233 325L246.325 339.972L272 341L272 339C263.44 336.517 262.39 312.614 271 310L271 308L256 308L256 310C262.777 312.057 264.473 337.556 256.942 338.549C251.642 339.247 240.151 327.099 240.769 322C241.416 316.663 249.198 310.977 254 310L254 307L241 307z"/>
<path style="fill:#c7d0f4; stroke:none;" d="M256 307L256 308L272 309L256 307z"/>
<path style="fill:#c4d0f4; stroke:none;" d="M274 309L286 308C282.479 306.522 276.661 305.955 274 309z"/>
<path style="fill:#becef4; stroke:none;" d="M304 309L316 308C312.479 306.522 306.661 305.955 304 309z"/>
<path style="fill:#e8f2ff; stroke:none;" d="M332 329L332 341C339.468 340.357 348.808 344.523 353.542 335.895C360.407 323.385 341.593 323.446 338.288 315.899C335.474 309.474 344.19 308.684 347.606 312.228C349.723 314.424 350.531 317.191 353 319L353 307C346.461 307.933 322.648 308.087 334.434 321.786C338.168 326.127 346.697 326.265 348.824 332.042C350.482 336.545 344.709 339.528 341.015 338.238C336.475 336.652 335.539 331.592 332 329M368 307.742C349.334 314.885 359.076 348.219 379 341.03C399.023 333.806 389.561 299.492 368 307.742M404.001 307.703C384.645 314.284 394.97 348.512 415.999 340.437C435.359 333.002 424.606 300.697 404.001 307.703M275 308C282.57 319.457 281.397 330.004 274 341L288 341C281.497 331.172 282 323.806 282 312L283 312L293 340L295 340L305 313L306 313C306 320.118 309.316 336.475 301 339L301 341L316 341C311.857 334.73 305.055 313.322 316 310L316 308C302.047 308 299.026 318.261 296 331L286.273 309.028L275 308z"/>
<path style="fill:#7ea3e9; stroke:none;" d="M371.015 309.746C358.619 314.455 362.932 344.488 377.906 338.258C388.906 333.68 385.579 304.215 371.015 309.746z"/>
<path style="fill:#78a2e9; stroke:none;" d="M406.043 310.029C394.908 315.875 399.106 345.827 413.957 337.972C425.153 332.051 420.182 302.605 406.043 310.029z"/>
<path style="fill:#cbd1f4; stroke:none;" d="M266 311L266 337L267 337L266 311z"/>
<path style="fill:#e8f2ff; stroke:none;" d="M256 365C261.614 374.516 260 384.997 260 396L256 396L256 399L270 399C266.081 392.659 265 389.729 265 382L281 382C281 387.563 282.376 394.064 276 396L276 399L291 399L291 396C284.233 393.946 282.571 368.251 290.058 367.466C300.225 366.4 309.9 391.445 300 397L300 398L315 398L315 397C305.158 391.478 313.843 367.867 323.956 367.867C331.229 367.867 326.596 389.956 330.009 394.786C334.598 401.28 347.118 400.214 351.397 393.945C355.223 388.339 352.155 379.369 353.148 373.005C353.684 369.573 356.203 367.72 358 365L344 365C345.51 367.26 348.338 368.569 349.397 371.133C352.184 377.875 351.753 395.589 342 395.833C326.936 396.209 333.804 371.351 338 365L312 365L316 368L310 380L308 380L302 367L306 367L306 365L276 365L281 380L266 380L270 365L256 365M359 365C364.221 373.966 370.464 388.377 360 397L360 398L373 398L373 397C364.755 391.67 367 380.627 367 372L368 372C371.885 379.8 381.452 396.387 390 399C390 386.616 388.152 375.364 395 365L381 365C387.073 373.464 387 378.202 387 389C378.592 378.406 373.796 365.002 359 365z"/>
<path style="fill:#a9ace9; stroke:none;" d="M315 399L311 399C315.251 405.035 322.31 414.622 329 417.972C337.574 422.266 354.471 419 364 419L347 398C334.05 400.404 328.005 395.002 328 382C327.999 378.578 329.646 369.487 325.683 367.786C320.936 365.749 317.418 371.832 315.345 375.001C309.676 383.665 307.761 391.077 315 399z"/>
<path style="fill:#fed4f6; stroke:none;" d="M119 368L119 587L322 587L292.17 554L228.09 485L162.17 414L119 368z"/>
<path style="fill:#c5d0f4; stroke:none;" d="M333 369L333 389L334 389L333 369z"/>
<path style="fill:#c1cff4; stroke:none;" d="M367 372L367 391L368 391L367 372z"/>
<path style="fill:#ced2f4; stroke:none;" d="M299 396C300.104 401.151 310.595 399 315 399L315 398L300 398L300 397L302 397L299 396z"/>
<path style="fill:#c3cff4; stroke:none;" d="M359 396C360.336 402.235 376.297 398.414 372 396C372.705 399.527 360.269 398.924 361 396L359 396z"/>
<path style="fill:#ffffff; stroke:none;" d="M213 419L213 422L437 422L437 419L213 419z"/>
<path style="fill:#ceb6e9; stroke:none;" d="M249 422C256.863 437.157 274.27 450.503 285.91 463C310.977 489.911 335.211 517.776 360.997 544C370.574 553.739 379.52 564.123 388.961 574C392.706 577.918 396.037 583.487 401 585.972C405.426 588.189 412.179 587 417 587L454 587C447.161 572.334 429.136 558.859 418.09 547C392.363 519.38 367.122 491.288 341.039 464C331.931 454.47 323.077 444.649 314.09 435C310.379 431.017 306.995 425.526 302 423.028C297.572 420.813 290.823 422 286 422L249 422z"/>
<path style="fill:#b1aee9; stroke:none;" d="M302 422L334.83 458L411.91 541L439.715 571L455.285 586.397L470 587L502 587C493.279 574.571 481.336 564.235 471.17 553C445.534 524.668 418.804 497.33 393.17 469C384.041 458.912 374.344 449.268 365.424 439C361.162 434.094 355.053 425.035 348.91 422.603C336.75 417.79 315.108 422 302 422z"/>
<path style="fill:#95a7e9; stroke:none;" d="M350 422L388.83 465L466.83 549L490.961 575L502.001 585.972L529 587L529 545L528.397 525L511.129 504.985L472.129 462.985L446.129 434.985L433 422.589L407 422L350 422z"/>
</svg>
